<?xml version="1.0" encoding="UTF-8"?>
<!DOCTYPE svg PUBLIC "-//W3C//DTD SVG 1.1//EN" "http://www.w3.org/Graphics/SVG/1.1/DTD/svg11.dtd">
<svg xmlns="http://www.w3.org/2000/svg" version="1.1" width="500" height="300" style="shape-rendering:geometricPrecision; text-rendering:geometricPrecision; image-rendering:optimizeQuality; fill-rule:evenodd; clip-rule:evenodd" xmlns:xlink="http://www.w3.org/1999/xlink">
<g><path style="opacity:1" fill="#000000" d="M -0.5,-0.5 C 166.167,-0.5 332.833,-0.5 499.5,-0.5C 499.5,166.167 499.5,332.833 499.5,499.5C 332.833,499.5 166.167,499.5 -0.5,499.5C -0.5,332.833 -0.5,166.167 -0.5,-0.5 Z"/></g>
<g><path style="opacity:1" fill="#fdfdfd" d="M 386.5,110.5 C 394.167,110.5 401.833,110.5 409.5,110.5C 409.5,170.167 409.5,229.833 409.5,289.5C 402.167,289.5 394.833,289.5 387.5,289.5C 387.667,244.165 387.5,198.832 387,153.5C 386.283,154.044 385.783,154.711 385.5,155.5C 366.639,189.387 347.639,223.22 328.5,257C 323.467,257.829 318.467,257.662 313.5,256.5C 304.667,240.833 295.833,225.167 287,209.5C 286.333,194.833 286.333,180.167 287,165.5C 298.333,185.5 309.667,205.5 321,225.5C 342.861,187.104 364.694,148.771 386.5,110.5 Z"/></g>
<g><path style="opacity:1" fill="#9e9e9e" d="M 386.5,110.5 C 394.316,109.508 402.316,109.174 410.5,109.5C 410.832,169.669 410.499,229.669 409.5,289.5C 409.5,229.833 409.5,170.167 409.5,110.5C 401.833,110.5 394.167,110.5 386.5,110.5 Z"/></g>
<g><path style="opacity:1" fill="#fdfdfd" d="M 126.5,111.5 C 163.397,158.28 200.064,205.28 236.5,252.5C 236.56,253.043 236.893,253.376 237.5,253.5C 238.5,206.171 238.833,158.838 238.5,111.5C 245.833,111.5 253.167,111.5 260.5,111.5C 260.5,172.167 260.5,232.833 260.5,293.5C 253.245,293.813 246.079,293.48 239,292.5C 203.334,246.671 167.5,201.004 131.5,155.5C 131.217,154.711 130.717,154.044 130,153.5C 129.5,199.832 129.333,246.165 129.5,292.5C 122.167,292.5 114.833,292.5 107.5,292.5C 107.5,232.167 107.5,171.833 107.5,111.5C 113.833,111.5 120.167,111.5 126.5,111.5 Z"/></g>
<g><path style="opacity:1" fill="#c6c6c6" d="M 260.5,111.5 C 253.167,111.5 245.833,111.5 238.5,111.5C 238.833,158.838 238.5,206.171 237.5,253.5C 236.893,253.376 236.56,253.043 236.5,252.5C 237.499,205.336 237.832,158.003 237.5,110.5C 245.352,110.175 253.018,110.508 260.5,111.5 Z"/></g>
<g><path style="opacity:1" fill="#4a4a4a" d="M 131.5,155.5 C 130.833,201.167 130.167,246.833 129.5,292.5C 129.333,246.165 129.5,199.832 130,153.5C 130.717,154.044 131.217,154.711 131.5,155.5 Z"/></g>
<g><path style="opacity:1" fill="#434343" d="M 387.5,289.5 C 386.833,244.833 386.167,200.167 385.5,155.5C 385.783,154.711 386.283,154.044 387,153.5C 387.5,198.832 387.667,244.165 387.5,289.5 Z"/></g>
<g><path style="opacity:1" fill="#d0d0d0" d="M 126.5,111.5 C 120.167,111.5 113.833,111.5 107.5,111.5C 107.5,171.833 107.5,232.167 107.5,292.5C 114.833,292.5 122.167,292.5 129.5,292.5C 122.018,293.492 114.352,293.825 106.5,293.5C 106.5,232.5 106.5,171.5 106.5,110.5C 113.354,110.176 120.021,110.509 126.5,111.5 Z"/></g>
<g><path style="opacity:1" fill="#a8a8a8" d="M 117.5,328.5 C 116.5,328.5 115.5,328.5 114.5,328.5C 114.5,336.833 114.5,345.167 114.5,353.5C 113.507,345.016 113.174,336.349 113.5,327.5C 115.099,327.232 116.432,327.566 117.5,328.5 Z"/></g>
<g><path style="opacity:1" fill="#f3f3f3" d="M 119.5,337.5 C 119.217,336.711 118.717,336.044 118,335.5C 117.501,341.491 117.334,347.491 117.5,353.5C 116.5,353.5 115.5,353.5 114.5,353.5C 114.5,345.167 114.5,336.833 114.5,328.5C 115.5,328.5 116.5,328.5 117.5,328.5C 122.136,333.979 126.636,339.646 131,345.5C 131.499,339.509 131.666,333.509 131.5,327.5C 132.833,327.5 134.167,327.5 135.5,327.5C 135.5,336.167 135.5,344.833 135.5,353.5C 134.022,353.762 132.689,353.429 131.5,352.5C 127.476,347.481 123.476,342.481 119.5,337.5 Z"/></g>
<g><path style="opacity:1" fill="#ececec" d="M 152.5,327.5 C 154.144,327.286 155.644,327.62 157,328.5C 159.89,336.612 163.056,344.612 166.5,352.5C 164.955,353.452 163.288,353.785 161.5,353.5C 161.592,348.657 159.259,346.324 154.5,346.5C 149.349,345.866 147.016,348.199 147.5,353.5C 145.712,353.785 144.045,353.452 142.5,352.5C 145.841,344.138 149.174,335.805 152.5,327.5 Z"/></g>
<g><path style="opacity:1" fill="#e8e8e8" d="M 173.5,327.5 C 178.511,327.334 183.511,327.501 188.5,328C 193.423,331.615 193.756,335.615 189.5,340C 195.079,344.845 194.746,349.178 188.5,353C 183.511,353.499 178.511,353.666 173.5,353.5C 173.5,344.833 173.5,336.167 173.5,327.5 Z"/></g>
<g><path style="opacity:1" fill="#8f8f8f" d="M 204.5,353.5 C 204.5,345.167 204.5,336.833 204.5,328.5C 203.5,328.5 202.5,328.5 201.5,328.5C 201.5,336.833 201.5,345.167 201.5,353.5C 200.507,345.016 200.174,336.349 200.5,327.5C 202.167,327.5 203.833,327.5 205.5,327.5C 205.826,336.349 205.493,345.016 204.5,353.5 Z"/></g>
<g><path style="opacity:1" fill="#fefffe" d="M 204.5,353.5 C 203.5,353.5 202.5,353.5 201.5,353.5C 201.5,345.167 201.5,336.833 201.5,328.5C 202.5,328.5 203.5,328.5 204.5,328.5C 204.5,336.833 204.5,345.167 204.5,353.5 Z"/></g>
<g><path style="opacity:1" fill="#f4f4f4" d="M 218.5,349.5 C 222.634,350.485 226.968,350.818 231.5,350.5C 231.5,351.5 231.5,352.5 231.5,353.5C 225.833,353.5 220.167,353.5 214.5,353.5C 214.5,344.833 214.5,336.167 214.5,327.5C 215.833,327.5 217.167,327.5 218.5,327.5C 218.5,334.833 218.5,342.167 218.5,349.5 Z"/></g>
<g><path style="opacity:1" fill="#efefef" d="M 251.5,327.5 C 253.144,327.286 254.644,327.62 256,328.5C 258.667,333.167 261.333,337.833 264,342.5C 266.667,337.833 269.333,333.167 272,328.5C 273.356,327.62 274.856,327.286 276.5,327.5C 276.5,336.167 276.5,344.833 276.5,353.5C 275.167,353.5 273.833,353.5 272.5,353.5C 272.666,347.824 272.499,342.157 272,336.5C 270.074,341.364 267.407,345.698 264,349.5C 260.848,345.874 258.181,341.874 256,337.5C 255.501,342.823 255.334,348.156 255.5,353.5C 254.167,353.5 252.833,353.5 251.5,353.5C 251.5,344.833 251.5,336.167 251.5,327.5 Z"/></g>
<g><path style="opacity:1" fill="#ececec" d="M 293.5,327.5 C 295.144,327.286 296.644,327.62 298,328.5C 300.89,336.612 304.056,344.612 307.5,352.5C 305.955,353.452 304.288,353.785 302.5,353.5C 302.592,348.657 300.259,346.324 295.5,346.5C 290.349,345.866 288.016,348.199 288.5,353.5C 286.712,353.785 285.045,353.452 283.5,352.5C 286.841,344.138 290.174,335.805 293.5,327.5 Z"/></g>
<g><path style="opacity:1" fill="#eeeeee" d="M 314.5,327.5 C 315.833,327.5 317.167,327.5 318.5,327.5C 318.5,331.167 318.5,334.833 318.5,338.5C 322.833,338.5 327.167,338.5 331.5,338.5C 331.5,334.833 331.5,331.167 331.5,327.5C 332.833,327.5 334.167,327.5 335.5,327.5C 335.5,336.167 335.5,344.833 335.5,353.5C 334.167,353.5 332.833,353.5 331.5,353.5C 331.5,349.833 331.5,346.167 331.5,342.5C 327.167,342.5 322.833,342.5 318.5,342.5C 318.5,346.167 318.5,349.833 318.5,353.5C 317.167,353.5 315.833,353.5 314.5,353.5C 314.5,344.833 314.5,336.167 314.5,327.5 Z"/></g>
<g><path style="opacity:1" fill="#f6f6f6" d="M 359.5,338.5 C 359.5,339.5 359.5,340.5 359.5,341.5C 355.629,341.185 351.962,341.518 348.5,342.5C 348.5,344.833 348.5,347.167 348.5,349.5C 352.634,350.485 356.968,350.818 361.5,350.5C 361.5,351.5 361.5,352.5 361.5,353.5C 355.833,353.5 350.167,353.5 344.5,353.5C 344.5,344.833 344.5,336.167 344.5,327.5C 350.167,327.5 355.833,327.5 361.5,327.5C 361.5,328.833 361.5,330.167 361.5,331.5C 357.167,331.5 352.833,331.5 348.5,331.5C 348.5,333.833 348.5,336.167 348.5,338.5C 352.167,338.5 355.833,338.5 359.5,338.5 Z"/></g>
<g><path style="opacity:1" fill="#f1f1f1" d="M 369.5,327.5 C 370.833,327.5 372.167,327.5 373.5,327.5C 373.5,334.833 373.5,342.167 373.5,349.5C 378.167,349.5 382.833,349.5 387.5,349.5C 387.5,350.833 387.5,352.167 387.5,353.5C 381.5,353.5 375.5,353.5 369.5,353.5C 369.5,344.833 369.5,336.167 369.5,327.5 Z"/></g>
<g><path style="opacity:1" fill="#070707" d="M 177.5,331.5 C 180.518,331.335 183.518,331.502 186.5,332C 189.167,334 189.167,336 186.5,338C 183.518,338.498 180.518,338.665 177.5,338.5C 177.5,336.167 177.5,333.833 177.5,331.5 Z"/></g>
<g><path style="opacity:1" fill="#151515" d="M 153.5,333.5 C 154.497,333.47 155.164,333.97 155.5,335C 156.206,337.62 157.206,340.12 158.5,342.5C 155.833,343.833 153.167,343.833 150.5,342.5C 151.801,339.573 152.801,336.573 153.5,333.5 Z"/></g>
<g><path style="opacity:1" fill="#151515" d="M 294.5,333.5 C 295.497,333.47 296.164,333.97 296.5,335C 297.206,337.62 298.206,340.12 299.5,342.5C 296.833,343.833 294.167,343.833 291.5,342.5C 292.801,339.573 293.801,336.573 294.5,333.5 Z"/></g>
<g><path style="opacity:1" fill="#818181" d="M 119.5,337.5 C 118.833,342.833 118.167,348.167 117.5,353.5C 117.334,347.491 117.501,341.491 118,335.5C 118.717,336.044 119.217,336.711 119.5,337.5 Z"/></g>
<g><path style="opacity:1" fill="#939393" d="M 359.5,338.5 C 360.434,339.568 360.768,340.901 360.5,342.5C 356.5,342.5 352.5,342.5 348.5,342.5C 351.962,341.518 355.629,341.185 359.5,341.5C 359.5,340.5 359.5,339.5 359.5,338.5 Z"/></g>
<g><path style="opacity:1" fill="#000000" d="M 177.5,342.5 C 180.85,342.335 184.183,342.502 187.5,343C 188.833,345 188.833,347 187.5,349C 184.183,349.498 180.85,349.665 177.5,349.5C 177.5,347.167 177.5,344.833 177.5,342.5 Z"/></g>
<g><path style="opacity:1" fill="#9a9a9a" d="M 218.5,349.5 C 223.167,349.5 227.833,349.5 232.5,349.5C 232.768,351.099 232.434,352.432 231.5,353.5C 231.5,352.5 231.5,351.5 231.5,350.5C 226.968,350.818 222.634,350.485 218.5,349.5 Z"/></g>
<g><path style="opacity:1" fill="#9b9b9b" d="M 348.5,349.5 C 353.167,349.5 357.833,349.5 362.5,349.5C 362.768,351.099 362.434,352.432 361.5,353.5C 361.5,352.5 361.5,351.5 361.5,350.5C 356.968,350.818 352.634,350.485 348.5,349.5 Z"/></g>
</svg>
